<?xml version="1.0" encoding="utf-8"?>
<!-- Generator: Adobe Illustrator 21.1.0, SVG Export Plug-In . SVG Version: 6.00 Build 0)  -->
<svg version="1.1" id="Layer_1" xmlns="http://www.w3.org/2000/svg" xmlns:xlink="http://www.w3.org/1999/xlink" x="0px" y="0px"
	 viewBox="0 0 512 512" style="enable-background:new 0 0 512 512;" xml:space="preserve">
<style type="text/css">
	.st0{fill:#606065;}
	.st1{fill:#CF1E4F;}
</style>
<g>
	<path class="st0" d="M52.5,281c2.3-3.2,6.8-6.1,12.5-6.1c7.6,0,12.2,4.8,12.2,11.2c0,6.5-5.2,11.2-12,12.8
		c6.6,0.7,13.2,4.9,13.2,12.3c0,7.8-5.7,12.9-14.7,12.9c-4.7,0-9.5-1.9-11.8-4.3V317c3.5,3.1,7.4,4.8,11.8,4.8c7.5,0,12-4.1,12-10.6
		c0-6.5-5.3-9.9-14.5-11.1v-1.8c8.8-2.3,13.2-5.7,13.2-12.2c0-5.3-4-8.9-9.5-8.9c-5.4,0-9.5,2.8-12.5,6.8V281z"/>
	<path class="st0" d="M85,317c3.9,3.4,8,4.8,12.4,4.8c6.4,0,11.6-3.2,11.6-10.2c0-6.7-4.4-9-11.3-11.7c-7.5-2.9-12.7-5.6-12.7-13.4
		c0-7.6,6.3-11.6,13.2-11.6c4.3,0,8.5,1.4,11.1,3.6v3.1c-3.5-3-6.9-4.3-11.1-4.3c-5.7,0-10.5,3.2-10.5,9.1c0,5.3,2.8,8,10.7,10.9
		c8.2,3,13.2,5.8,13.2,14.2c0,8.3-6.5,12.6-14.3,12.6c-5.1,0-9.6-1.6-12.4-4V317z"/>
	<path class="st0" d="M122.1,268.6h2.7v21.1c3.6-1.2,7.4-2,10.7-2c8.9,0,14.1,3.5,14.1,11.6v24.2h-2.7v-23.6c0-8-5.3-9.8-11.4-9.8
		c-4.4,0-8.2,1-10.7,1.9v31.5h-2.7V268.6z"/>
	<path class="st0" d="M180.7,298.1c0-5.2-2.8-8.1-8-8.1c-3.9,0-7,1-10,2.7v-2.5c2.5-1.5,6.1-2.6,10.1-2.6c6.7,0,10.6,3.2,10.6,10.2
		v25.1c-2.5,0.7-5.7,1.2-8.4,1.2c-9.9,0-15.9-3.5-15.9-10.3c0-7.4,6.9-10.4,17.5-10.4h4.1V298.1z M180.7,305.7h-4
		c-9,0-14.9,2.1-14.9,8.1c0,5.7,5.8,8.1,13.2,8.1c2.2,0,3.8-0.2,5.7-0.6V305.7z"/>
	<path class="st0" d="M195.6,289.7c2.9-1.1,6.8-2,10.7-2c11.7,0,19.2,6.1,19.2,18.1c0,11.5-7.7,18.4-18.4,18.4
		c-3.1,0-6.8-0.6-8.9-1.8V338h-2.7V289.7z M198.3,319.9c2.7,1.2,5.4,1.9,8.9,1.9c10,0,15.7-6.8,15.7-16.1c0-10.3-6.2-15.8-16.5-15.8
		c-3.1,0-6.1,0.5-8.1,1.2V319.9z"/>
	<path class="st0" d="M236,305.2v0.6c0,9.9,6.2,16,14.7,16c4.6,0,8.1-1,11.6-4v2.8c-3.1,2.6-7.5,3.6-11.6,3.6
		c-9.5,0-17.3-6.6-17.3-18.4c0-9.8,7-18.1,16.4-18.1c8.6,0,14,6.1,14,15.3v2.2H236z M261.2,303c0-7.9-4.3-13-11.3-13
		c-6.8,0-12.4,5.4-13.6,13H261.2z"/>
	<path class="st0" d="M304.8,323.5h-5v-43.6h-15.8v-4.4h36.7v4.4h-15.8V323.5z"/>
	<path class="st0" d="M329.9,323.5H325v-32c3.7-2.3,8.2-3.8,13.1-3.8c1.9,0,3.9,0.2,5.9,0.7v4.8c-2.1-0.7-4.6-0.9-6.2-0.9
		c-3.5,0-6.1,0.7-7.9,1.8V323.5z"/>
	<path class="st0" d="M369.1,298.9c0-4.5-2.9-6.9-7.4-6.9c-4,0-7.1,1.1-10.3,2.8v-4.6c3-1.6,6.8-2.7,10.9-2.7
		c7.1,0,11.7,3.2,11.7,11.1v24.3c-3.2,0.9-7,1.3-10,1.3c-9.5,0-15.9-3-15.9-10.4c0-6.9,6.4-10.6,17.1-10.6h4V298.9z M369.1,307.1
		h-3.6c-7.3,0-12.6,1.9-12.6,6.6s4.8,6.4,11.3,6.4c1.5,0,3.2-0.2,4.9-0.5V307.1z"/>
	<path class="st0" d="M393.7,323.5l-13.8-35.2h5.1l11.5,30.7l11.5-30.7h4.9L399,323.5H393.7z"/>
	<path class="st0" d="M421.5,306.1v0.2c0,8.6,6.2,13.7,13.1,13.7c5,0,8.5-1.3,12-4v4.8c-3.2,2.3-7.7,3.4-12,3.4
		c-10.2,0-17.9-6.9-17.9-18.4c0-10.6,7.3-18.4,16.7-18.4c8.9,0,14.8,5.3,14.8,15.3v3.3H421.5z M443.3,302.1
		c-0.3-7.4-4.3-10.3-10.2-10.3c-5.5,0-9.9,3.7-11.3,10.3H443.3z"/>
	<path class="st0" d="M462.3,323.5h-4.8v-54.9h4.8V323.5z"/>
</g>
<path class="st1" d="M234.4,155.9c-2.5-1.7-5.7-0.8-7.2,1.3c-1.1,1.6-1.5,3.8-1.7,5c-0.2,1.2-11,63.5-11.4,67.3
	c-0.2,2,0.5,3.8,2.2,4.9c1.2,0.8,2.7,1,3.6,0.9c2.8-0.5,78.7-20.4,83.3-21.2c1.2-0.2,2.4-0.9,3.3-2.1c1.6-2.3,1-5.5-1.3-7.2
	C302,202.5,237.9,158.4,234.4,155.9 M230.9,182.7c1.4-5.5,1.8-8.9,3.4-11.3c1.2-1.7,3.2-2.4,5-1.2c2.9,2,3.1,7.5,1,11.7
	c-2.2,4.5-17.4,35.2-17.4,35.2S227.4,196.4,230.9,182.7 M284.6,202.6c0,0.5-0.1,0.9-0.5,1.5c-0.8,1.1-2.7,1.9-4.4,2.6
	c-1.7,0.7-45.9,17.7-47.5,18.4c-1.7,0.8-5.1,2.1-6.2,1.3c-1.7-1.2-0.8-3.1,0.7-5.3c4.2-6.3,20.4-30.9,22.4-33.8
	c2.8-4,6.9-5.6,10.8-2.9c4.3,3,21.5,14.8,22.7,15.7C283.9,201,284.6,201.6,284.6,202.6"/>
</svg>
